<?xml version="1.0" standalone="no"?>
<!DOCTYPE svg PUBLIC "-//W3C//DTD SVG 20010904//EN"
 "http://www.w3.org/TR/2001/REC-SVG-20010904/DTD/svg10.dtd">
<svg version="1.0" xmlns="http://www.w3.org/2000/svg"
 width="800.000000pt" height="500.000000pt" viewBox="0 0 800.000000 500.000000"
 preserveAspectRatio="xMidYMid meet">

<g transform="translate(0.000000,500.000000) scale(0.100000,-0.100000)"
fill="#000000" stroke="none">
<path d="M0 2500 l0 -2500 4000 0 4000 0 0 2500 0 2500 -4000 0 -4000 0 0
-2500z m4120 2289 c748 -92 1408 -550 1759 -1220 176 -335 261 -690 261 -1088
0 -766 -384 -1470 -1045 -1915 -204 -138 -530 -275 -770 -325 -351 -73 -699
-68 -1034 15 -184 45 -285 81 -446 158 -244 117 -443 256 -628 439 -133 132
-212 229 -318 390 -172 262 -285 549 -344 877 -26 143 -32 538 -11 694 71 508
309 974 684 1338 356 345 786 558 1277 632 110 17 496 20 615 5z"/>
<path d="M3540 4644 c-355 -47 -713 -193 -992 -405 -462 -348 -759 -836 -853
-1399 -22 -133 -30 -400 -16 -545 33 -336 133 -638 306 -922 96 -159 178 -265
305 -393 698 -705 1776 -852 2630 -356 741 429 1163 1268 1065 2110 -88 748
-533 1381 -1200 1706 -226 111 -433 174 -671 205 -142 19 -430 18 -574 -1z
m2083 -1061 c4 -2 7 -23 7 -47 l0 -43 -54 5 c-45 4 -57 1 -75 -17 -24 -24 -27
-59 -7 -87 11 -15 30 -20 93 -24 l78 -5 0 -45 0 -45 -37 1 c-21 0 -99 1 -174
2 l-135 2 3 43 c2 33 7 43 23 45 18 2 20 9 17 56 -6 87 38 144 124 165 35 8
118 5 137 -6z m-3378 -202 c51 -23 119 -96 135 -145 7 -21 10 -67 8 -105 -3
-64 -8 -74 -121 -270 -64 -111 -117 -205 -117 -207 0 -2 20 -4 44 -4 l45 0
-24 -42 c-106 -193 -24 -389 162 -388 91 1 180 65 202 147 7 24 11 204 11 486
l0 447 93 0 92 0 0 -387 0 -388 112 -3 112 -3 -11 38 c-15 55 -5 160 20 209
29 57 106 122 161 137 26 7 46 19 49 29 5 22 107 65 189 79 144 25 274 -10
364 -100 72 -73 89 -121 96 -273 l6 -118 189 0 c253 0 238 -14 238 225 l0 175
100 0 100 0 0 -175 c0 -173 0 -176 25 -200 33 -34 87 -34 120 0 25 24 25 27
25 200 l0 175 100 0 100 0 0 -179 0 -180 26 -20 c20 -15 41 -21 80 -21 l54 0
0 220 0 220 100 0 100 0 0 -305 0 -305 -152 0 c-134 0 -157 2 -195 21 -24 12
-51 32 -60 46 l-16 24 -36 -35 c-46 -44 -78 -56 -153 -56 -72 0 -137 27 -164
67 l-17 27 -21 -26 c-12 -14 -34 -34 -51 -44 -28 -18 -67 -19 -813 -24 l-785
-5 -13 -44 c-28 -95 -131 -202 -234 -243 -43 -18 -76 -22 -150 -23 -86 0 -101
3 -162 32 -196 92 -265 297 -178 526 21 56 22 57 61 57 21 0 39 2 39 5 0 3
-53 96 -117 207 -116 200 -118 204 -121 273 -6 112 39 194 131 240 64 31 161
34 222 6z m3345 -631 l0 -400 -95 0 -95 0 0 400 0 400 95 0 95 0 0 -400z
m-3290 -949 c0 -122 3 -131 44 -131 30 0 31 2 31 41 0 54 38 89 96 89 55 0 89
-34 89 -90 l0 -40 60 0 c58 0 60 1 50 20 -6 11 -20 26 -30 33 -31 19 -25 52
11 67 102 43 207 -16 154 -86 -22 -30 -18 -34 30 -34 l45 0 0 115 0 115 30 0
30 0 0 -140 0 -139 -329 -1 c-287 0 -332 2 -345 16 -13 12 -16 40 -16 140 l0
124 25 0 c25 0 25 0 25 -99z m770 -41 l0 -140 -30 0 -30 0 0 140 0 140 30 0
30 0 0 -140z m1170 0 l0 -140 -116 0 c-63 0 -124 5 -135 11 -15 7 -24 7 -35
-1 -8 -8 -27 -10 -46 -6 -37 7 -35 7 -105 0 -44 -5 -53 -9 -53 -26 0 -50 -51
-88 -120 -88 -35 0 -40 3 -40 23 0 19 8 25 41 33 25 5 48 18 57 32 14 21 14
22 -22 22 -48 0 -72 13 -92 51 -32 63 13 129 88 129 54 0 88 -35 88 -90 0 -39
1 -40 34 -40 39 0 46 11 46 76 0 40 2 44 25 44 23 0 25 -4 25 -44 0 -57 8 -76
31 -76 15 0 18 9 21 58 3 54 5 57 30 60 26 3 27 2 30 -55 3 -51 6 -58 26 -61
21 -3 22 0 22 62 l0 66 30 0 30 0 0 -65 0 -65 40 0 40 0 0 115 0 115 30 0 30
0 0 -140z m532 28 l3 -113 38 -3 37 -3 0 41 c0 57 34 90 92 90 63 -1 98 -36
98 -99 0 -29 2 -31 40 -31 l40 0 0 65 0 65 30 0 30 0 0 -90 0 -90 -196 0
c-122 0 -203 4 -216 11 -14 8 -23 8 -31 0 -7 -7 -57 -11 -130 -11 -118 0 -119
0 -148 29 -34 35 -39 86 -11 121 16 20 21 21 39 10 19 -12 19 -15 4 -41 -14
-26 -14 -29 4 -49 17 -19 28 -20 114 -18 l96 3 3 113 3 112 29 0 29 0 3 -112z
m658 37 l0 -74 26 24 c36 34 92 34 123 1 18 -19 24 -40 28 -90 l6 -66 -151 0
-150 0 -7 -30 c-4 -16 -18 -39 -32 -50 -28 -22 -93 -28 -93 -8 0 6 -3 8 -7 5
-8 -9 -33 12 -33 28 0 17 31 28 44 15 14 -14 32 -12 50 6 12 12 16 38 16 115
l0 99 30 0 30 0 0 -65 0 -65 30 0 30 0 0 115 0 115 30 0 30 0 0 -75z m-2972
42 c4 -20 -25 -34 -40 -19 -15 15 -1 44 19 40 10 -2 19 -11 21 -21z m70 0 c4
-20 -25 -34 -40 -19 -15 15 -1 44 19 40 10 -2 19 -11 21 -21z m890 -5 c3 -16
-2 -22 -17 -22 -26 0 -36 17 -20 36 16 19 33 13 37 -14z m70 0 c3 -16 -2 -22
-17 -22 -24 0 -35 15 -27 36 9 23 40 13 44 -14z m1439 17 c15 -15 5 -39 -17
-39 -22 0 -32 24 -17 39 6 6 14 11 17 11 3 0 11 -5 17 -11z m71 -17 c3 -16 -2
-22 -17 -22 -26 0 -36 17 -20 36 16 19 33 13 37 -14z m-358 -17 c0 -8 -9 -15
-20 -15 -11 0 -20 -7 -20 -15 0 -9 9 -15 25 -15 16 0 25 -6 25 -15 0 -11 -12
-15 -51 -15 -43 0 -50 3 -45 16 3 9 6 22 6 29 0 8 7 21 16 29 20 21 64 21 64
1z m-2440 -140 c0 -140 -24 -185 -99 -185 -45 0 -43 39 2 60 l32 15 3 103 3
102 29 0 30 0 0 -95z m1291 82 c40 -31 53 -125 25 -191 -39 -93 -169 -115
-243 -41 -28 28 -33 40 -33 78 0 61 8 77 36 77 22 0 23 -3 18 -44 -6 -39 -3
-48 19 -70 35 -35 102 -36 137 -3 l25 22 -25 3 c-82 9 -110 33 -110 92 0 57
34 90 92 90 24 0 50 -6 59 -13z m1637 -221 c6 -29 -15 -43 -35 -24 -14 14 -14
20 -3 33 16 19 34 15 38 -9z"/>
<path d="M2082 3207 c-50 -53 -13 -137 59 -137 47 0 79 34 79 81 0 71 -90 107
-138 56z"/>
<path d="M3452 2844 c56 -59 79 -120 85 -230 l6 -94 64 0 65 0 -4 113 c-3 104
-5 117 -31 155 -33 51 -91 82 -166 89 l-56 6 37 -39z"/>
<path d="M3187 2750 c-59 -47 -59 -148 -1 -200 32 -28 40 -30 109 -30 l75 0 0
75 c0 84 -16 134 -51 159 -33 23 -100 21 -132 -4z"/>
<path d="M2702 1751 c-10 -6 -9 -13 6 -32 17 -20 22 -21 36 -10 20 17 21 37 0
45 -20 8 -26 7 -42 -3z"/>
<path d="M2442 1738 c-29 -29 -6 -68 40 -68 22 0 28 5 28 21 0 49 -39 76 -68
47z"/>
<path d="M3632 1738 c-29 -29 -6 -68 40 -68 22 0 28 5 28 21 0 49 -39 76 -68
47z"/>
<path d="M4917 1743 c-13 -13 -7 -61 9 -67 36 -14 54 -7 54 22 0 15 -5 33 -12
40 -13 13 -41 16 -51 5z"/>
<path d="M5461 1724 c-48 -40 -41 -54 29 -54 57 0 60 1 60 24 0 27 -24 56 -45
56 -7 0 -27 -12 -44 -26z"/>
<path d="M3402 1733 c-17 -33 4 -63 46 -63 18 0 22 6 22 28 0 48 -49 73 -68
35z"/>
</g>
</svg>
