<?xml version="1.0" standalone="no"?>
<!DOCTYPE svg PUBLIC "-//W3C//DTD SVG 20010904//EN"
 "http://www.w3.org/TR/2001/REC-SVG-20010904/DTD/svg10.dtd">
<svg version="1.0" xmlns="http://www.w3.org/2000/svg"
 width="800.000000pt" height="500.000000pt" viewBox="0 0 800.000000 500.000000"
 preserveAspectRatio="xMidYMid meet">

<g transform="translate(0.000000,500.000000) scale(0.100000,-0.100000)"
fill="#000000" stroke="none">
<path d="M0 2500 l0 -2500 4000 0 4000 0 0 2500 0 2500 -4000 0 -4000 0 0
-2500z m7593 2269 l37 -10 0 -93 0 -94 -47 14 c-101 30 -198 10 -234 -50 -33
-54 -20 -138 27 -177 12 -10 58 -15 168 -19 l151 -5 3 -92 3 -93 -341 0 -340
0 0 95 0 95 41 0 c38 0 41 2 35 23 -57 193 66 386 268 418 58 9 173 3 229 -12z
m-5611 -1331 l3 -773 222 -3 221 -2 -20 62 c-27 85 -29 239 -4 323 26 88 72
167 137 238 74 81 169 132 302 161 20 5 27 12 27 30 0 30 33 51 157 100 129
51 224 69 378 69 157 0 244 -20 383 -89 126 -61 223 -157 281 -276 59 -119 71
-187 71 -420 l0 -198 367 0 c350 0 369 1 409 21 31 15 48 32 63 63 20 40 21
60 21 374 l0 332 193 -2 192 -3 5 -347 c5 -331 6 -348 26 -375 34 -46 80 -65
151 -61 67 4 99 21 137 72 20 26 21 42 24 372 l3 344 195 0 194 0 0 -342 c0
-322 1 -345 20 -375 34 -57 62 -68 187 -72 l113 -3 0 436 0 436 195 0 195 0 0
-605 0 -605 -252 0 c-139 0 -282 5 -318 10 -89 15 -158 50 -219 114 l-51 55
-50 -53 c-94 -99 -231 -140 -394 -117 -104 14 -172 48 -233 115 l-49 53 -51
-52 c-61 -63 -135 -101 -223 -115 -42 -6 -579 -10 -1541 -10 l-1477 0 -25 -82
c-44 -139 -134 -271 -252 -365 -286 -229 -707 -235 -989 -14 -109 85 -204 230
-242 369 -9 31 -18 106 -21 165 -8 162 19 302 90 460 l30 67 83 0 c46 0 84 2
84 4 0 2 -66 118 -146 257 -189 327 -187 324 -188 429 0 71 4 94 26 141 36 79
89 133 166 171 59 29 76 33 152 33 76 0 93 -4 152 -33 77 -38 130 -92 167
-171 22 -47 26 -70 26 -141 0 -104 -1 -108 -193 -439 -78 -135 -140 -247 -137
-249 2 -2 40 -4 84 -3 45 1 81 -2 81 -5 0 -4 -13 -28 -28 -53 -43 -69 -82
-173 -99 -265 -50 -265 76 -474 315 -524 67 -14 92 -14 148 -5 144 25 264 116
327 250 l32 68 1 905 c1 498 2 908 3 913 0 4 82 7 181 7 l180 0 2 -772z m5568
-323 l0 -795 -192 2 -193 3 -3 793 -2 792 195 0 195 0 0 -795z m-6620 -1894
c0 -256 -2 -251 89 -251 l57 0 -1 78 c0 71 3 82 29 116 66 87 218 103 295 33
38 -36 61 -95 61 -164 l0 -63 120 0 c66 0 120 4 120 9 0 4 -30 38 -66 75 -56
58 -65 72 -62 99 3 27 11 36 50 55 70 35 163 48 231 33 99 -22 140 -76 117
-154 -6 -23 -23 -56 -36 -74 -13 -17 -24 -34 -24 -37 0 -3 45 -6 100 -6 l100
0 0 235 0 235 60 0 60 0 0 -286 0 -285 -207 5 c-115 3 -217 5 -228 4 -11 0
-217 -2 -457 -4 -387 -4 -441 -3 -469 11 -53 28 -59 58 -59 320 l0 235 60 0
60 0 0 -219z m1570 -66 l0 -285 -60 0 -60 0 0 285 0 285 60 0 60 0 0 -285z
m2370 0 l0 -286 -245 3 c-235 3 -245 4 -266 24 l-21 22 -36 -24 c-50 -34 -120
-33 -162 3 -18 15 -35 22 -38 17 -22 -32 -59 -44 -133 -44 l-76 0 -13 -57
c-24 -109 -121 -173 -262 -173 l-58 0 0 55 0 55 48 0 c48 0 118 26 139 51 6 8
14 26 18 42 l7 27 -61 0 c-129 0 -211 72 -211 185 0 118 89 193 216 183 106
-9 163 -75 172 -200 l5 -68 53 0 c78 0 84 10 84 136 l0 104 60 0 60 0 0 -104
c0 -128 20 -158 81 -126 17 10 19 22 19 120 l0 110 60 0 60 0 0 -104 c0 -97 2
-106 22 -120 12 -9 35 -16 50 -16 l28 0 0 135 0 135 60 0 60 0 0 -135 0 -135
80 0 80 0 0 235 0 235 60 0 60 0 0 -285z m1090 60 c0 -258 -5 -245 97 -245
l59 0 -1 78 c0 71 3 82 29 116 66 87 218 103 295 33 38 -36 61 -95 61 -164 l0
-63 85 0 85 0 0 135 0 135 60 0 60 0 0 -185 0 -185 -404 0 -403 0 -35 24 -36
24 -21 -22 c-21 -20 -32 -21 -248 -24 -188 -3 -234 0 -268 13 -130 49 -160
231 -52 316 19 16 23 15 59 -8 l38 -25 -25 -30 c-37 -44 -37 -99 1 -138 24
-25 27 -25 212 -28 152 -2 191 0 207 12 19 13 20 28 23 235 l3 221 60 0 59 0
0 -225z m1330 75 c0 -82 2 -150 5 -150 4 0 23 16 43 36 51 49 87 66 142 66
120 0 169 -72 178 -259 l5 -113 -305 0 -305 0 -7 -42 c-9 -58 -48 -113 -96
-138 -51 -26 -138 -30 -155 -6 -7 9 -23 16 -37 16 -31 0 -48 17 -48 50 0 49
47 66 94 35 28 -19 78 -11 103 17 16 18 19 46 23 227 l5 206 58 3 57 3 0 -136
0 -135 60 0 60 0 0 235 0 235 60 0 60 0 0 -150z m-6060 110 c25 -25 25 -52 0
-75 -37 -34 -100 7 -85 56 6 18 34 36 58 38 4 1 16 -8 27 -19z m140 0 c25 -25
25 -52 0 -75 -37 -34 -100 7 -85 56 6 18 34 36 58 38 4 1 16 -8 27 -19z m1820
0 c11 -11 20 -27 20 -35 0 -8 -9 -24 -20 -35 -11 -11 -27 -20 -35 -20 -18 0
-55 35 -55 53 0 25 32 53 63 56 4 1 16 -8 27 -19z m140 0 c11 -11 20 -27 20
-35 0 -8 -9 -24 -20 -35 -11 -11 -27 -20 -35 -20 -18 0 -55 35 -55 53 0 25 32
53 63 56 4 1 16 -8 27 -19z m2940 0 c25 -25 25 -52 0 -75 -37 -34 -100 7 -85
56 6 18 34 36 58 38 4 1 16 -8 27 -19z m140 0 c25 -25 25 -52 0 -75 -37 -34
-100 7 -85 56 6 18 34 36 58 38 4 1 16 -8 27 -19z m-717 -47 c4 -2 7 -15 7
-28 0 -21 -3 -23 -34 -18 -27 4 -36 1 -49 -17 -25 -36 -7 -58 51 -62 43 -3 47
-5 47 -28 0 -25 -1 -25 -102 -28 l-103 -3 0 31 c0 16 5 30 10 30 6 0 10 15 10
34 0 74 95 127 163 89z m-4983 -323 c0 -229 -5 -258 -57 -312 -36 -38 -89 -53
-170 -49 -21 1 -23 6 -23 54 l0 52 40 0 c49 0 78 26 90 81 5 21 10 117 10 212
l0 172 55 0 55 0 0 -210z m2603 196 c39 -16 82 -61 96 -99 16 -42 14 -235 -4
-293 -19 -64 -60 -113 -126 -149 -45 -24 -69 -30 -142 -33 -99 -5 -146 8 -217
59 -80 58 -117 205 -76 303 15 35 16 36 70 36 l55 0 -15 -35 c-22 -54 -18
-136 9 -176 66 -100 257 -104 317 -7 l20 33 -75 6 c-58 5 -85 13 -116 33 -89
59 -104 197 -31 280 45 50 165 72 235 42z m3361 -442 c24 -24 20 -61 -9 -80
-23 -15 -27 -15 -50 0 -25 16 -29 27 -25 56 5 40 55 54 84 24z"/>
<path d="M694 3716 c-44 -20 -64 -53 -64 -107 0 -58 26 -94 80 -110 53 -16
107 10 134 65 17 36 18 43 5 79 -24 68 -93 101 -155 73z"/>
<path d="M3308 3313 c71 -66 123 -149 154 -243 16 -52 22 -100 26 -238 l5
-173 131 3 131 3 3 130 c5 251 -23 361 -118 455 -78 79 -187 120 -320 120
l-75 0 63 -57z"/>
<path d="M2834 3141 c-48 -22 -101 -82 -114 -131 -30 -107 1 -234 73 -297 50
-44 91 -53 241 -53 l128 0 -4 163 c-3 135 -7 169 -24 207 -22 47 -79 105 -121
121 -40 15 -135 10 -179 -10z"/>
<path d="M1722 1139 c-23 -9 -23 -9 24 -63 46 -53 47 -54 71 -39 45 30 58 84
24 103 -24 12 -88 12 -119 -1z"/>
<path d="M1216 1119 c-26 -21 -35 -65 -20 -104 9 -24 58 -45 104 -45 l40 0 0
60 c0 51 -4 65 -25 85 -30 30 -64 32 -99 4z"/>
<path d="M3646 1119 c-20 -16 -26 -29 -26 -59 0 -58 25 -82 93 -88 l57 -4 0
51 c0 80 -29 120 -86 121 -6 0 -23 -9 -38 -21z"/>
<path d="M6256 1119 c-26 -21 -35 -65 -20 -104 9 -24 58 -45 104 -45 l40 0 0
60 c0 51 -4 65 -25 85 -30 30 -64 32 -99 4z"/>
<path d="M7378 1105 c-41 -28 -78 -82 -78 -114 0 -20 4 -21 120 -21 l120 0 0
45 c0 51 -20 99 -45 109 -34 13 -82 5 -117 -19z"/>
<path d="M3175 1115 c-30 -29 -33 -83 -7 -115 14 -18 32 -24 75 -28 l57 -4 0
61 c0 52 -4 66 -25 86 -13 14 -36 25 -50 25 -14 0 -37 -11 -50 -25z"/>
</g>
</svg>
